<svg width="28" height="28" viewBox="0 0 28 28" fill="none" xmlns="http://www.w3.org/2000/svg">
<path d="M10.5 5.66675H17.5C20.1667 5.66675 22.3334 7.83341 22.3334 10.5001V17.5001C22.3334 18.782 21.8241 20.0113 20.9177 20.9178C20.0113 21.8242 18.7819 22.3334 17.5 22.3334H10.5C7.83335 22.3334 5.66669 20.1667 5.66669 17.5001V10.5001C5.66669 9.2182 6.17591 7.98882 7.08234 7.0824C7.98876 6.17597 9.21814 5.66675 10.5 5.66675ZM10.3334 7.33341C9.5377 7.33341 8.77464 7.64949 8.21203 8.21209C7.64942 8.7747 7.33335 9.53777 7.33335 10.3334V17.6667C7.33335 19.3251 8.67502 20.6667 10.3334 20.6667H17.6667C18.4623 20.6667 19.2254 20.3507 19.788 19.7881C20.3506 19.2255 20.6667 18.4624 20.6667 17.6667V10.3334C20.6667 8.67508 19.325 7.33341 17.6667 7.33341H10.3334ZM18.375 8.58341C18.6513 8.58341 18.9162 8.69316 19.1116 8.88851C19.3069 9.08386 19.4167 9.34881 19.4167 9.62508C19.4167 9.90135 19.3069 10.1663 19.1116 10.3617C18.9162 10.557 18.6513 10.6667 18.375 10.6667C18.0988 10.6667 17.8338 10.557 17.6384 10.3617C17.4431 10.1663 17.3334 9.90135 17.3334 9.62508C17.3334 9.34881 17.4431 9.08386 17.6384 8.88851C17.8338 8.69316 18.0988 8.58341 18.375 8.58341ZM14 9.83341C15.1051 9.83341 16.1649 10.2724 16.9463 11.0538C17.7277 11.8352 18.1667 12.895 18.1667 14.0001C18.1667 15.1052 17.7277 16.165 16.9463 16.9464C16.1649 17.7278 15.1051 18.1667 14 18.1667C12.895 18.1667 11.8351 17.7278 11.0537 16.9464C10.2723 16.165 9.83335 15.1052 9.83335 14.0001C9.83335 12.895 10.2723 11.8352 11.0537 11.0538C11.8351 10.2724 12.895 9.83341 14 9.83341ZM14 11.5001C13.337 11.5001 12.7011 11.7635 12.2323 12.2323C11.7634 12.7012 11.5 13.337 11.5 14.0001C11.5 14.6631 11.7634 15.299 12.2323 15.7678C12.7011 16.2367 13.337 16.5001 14 16.5001C14.6631 16.5001 15.2989 16.2367 15.7678 15.7678C16.2366 15.299 16.5 14.6631 16.5 14.0001C16.5 13.337 16.2366 12.7012 15.7678 12.2323C15.2989 11.7635 14.6631 11.5001 14 11.5001Z" fill="#202124"/>
</svg>
