<svg width="28" height="28" viewBox="0 0 28 28" fill="none" xmlns="http://www.w3.org/2000/svg">
<path d="M22.3333 14.1166C22.3322 13.7589 22.2261 13.4095 22.0281 13.1117C21.8301 12.8138 21.5489 12.5808 21.2196 12.4414C20.8902 12.302 20.5271 12.2625 20.1755 12.3277C19.8239 12.3929 19.4991 12.56 19.2417 12.8082C17.7966 11.832 16.1017 11.2912 14.3583 11.2499L15.1917 7.33324L17.9167 7.92491C17.9306 8.24114 18.0594 8.54141 18.279 8.76941C18.4986 8.9974 18.7938 9.13745 19.1093 9.16329C19.4248 9.18912 19.7388 9.09897 19.9926 8.90973C20.2463 8.7205 20.4223 8.44519 20.4875 8.13544C20.5527 7.8257 20.5027 7.5028 20.3468 7.22732C20.1909 6.95185 19.9398 6.74272 19.6407 6.63916C19.3416 6.53561 19.0149 6.54475 18.7221 6.66486C18.4292 6.78498 18.1902 7.00781 18.05 7.29158L15.0167 6.64991C14.925 6.63324 14.8333 6.64991 14.775 6.69991C14.7 6.74158 14.6583 6.81658 14.6417 6.91658L13.7167 11.2666C11.775 11.3249 10.025 11.9166 8.75832 12.8166C8.41337 12.4995 7.96012 12.3266 7.49165 12.3332C7.07181 12.3212 6.66095 12.4563 6.33023 12.7152C5.99951 12.9741 5.76974 13.3405 5.68073 13.751C5.59171 14.1615 5.64904 14.5902 5.84279 14.9628C6.03654 15.3355 6.35452 15.6287 6.74165 15.7916C6.71091 15.9732 6.69696 16.1574 6.69999 16.3416C6.69999 19.1499 9.96665 21.4416 14 21.4416C18.0333 21.4416 21.3 19.1666 21.3 16.3416C21.3 16.1666 21.2917 15.9749 21.2583 15.7916C21.5791 15.6447 21.851 15.4087 22.0416 15.1118C22.2322 14.8149 22.3334 14.4694 22.3333 14.1166ZM9.83332 15.4166C9.83332 14.6999 10.4 14.1166 11.1167 14.1166C11.8333 14.1166 12.4167 14.6999 12.4167 15.4166C12.4167 15.7614 12.2797 16.092 12.0359 16.3358C11.7921 16.5796 11.4614 16.7166 11.1167 16.7166C10.4 16.7332 9.83332 16.1332 9.83332 15.4166ZM17.0917 18.8666C16.1917 19.7666 14.4917 19.8332 14 19.8332C13.4917 19.8332 11.7917 19.7499 10.9083 18.8666C10.8768 18.8356 10.8518 18.7986 10.8347 18.7578C10.8177 18.717 10.8089 18.6733 10.8089 18.6291C10.8089 18.5849 10.8177 18.5411 10.8347 18.5003C10.8518 18.4596 10.8768 18.4226 10.9083 18.3916C10.9393 18.3601 10.9763 18.3351 11.0171 18.318C11.0579 18.3009 11.1016 18.2921 11.1458 18.2921C11.19 18.2921 11.2338 18.3009 11.2746 18.318C11.3153 18.3351 11.3523 18.3601 11.3833 18.3916C11.95 18.9582 13.1667 19.1499 14 19.1499C14.8333 19.1499 16.0583 18.9582 16.6167 18.3916C16.6477 18.3601 16.6846 18.3351 16.7254 18.318C16.7662 18.3009 16.81 18.2921 16.8542 18.2921C16.8984 18.2921 16.9421 18.3009 16.9829 18.318C17.0237 18.3351 17.0606 18.3601 17.0917 18.3916C17.2083 18.5249 17.2083 18.7332 17.0917 18.8666ZM16.85 16.7332C16.1333 16.7332 15.55 16.1499 15.55 15.4332C15.55 15.0885 15.687 14.7578 15.9307 14.514C16.1745 14.2702 16.5052 14.1332 16.85 14.1332C17.5667 14.1332 18.1667 14.7166 18.1667 15.4332C18.1581 15.7782 18.0161 16.1064 17.7705 16.3488C17.525 16.5912 17.195 16.729 16.85 16.7332Z" fill="#202124"/>
</svg>
