<svg width="28" height="28" viewBox="0 0 28 28" fill="none" xmlns="http://www.w3.org/2000/svg">
<path d="M22.7167 8.99992C22.075 9.29159 21.3833 9.48325 20.6667 9.57492C21.4 9.13325 21.9667 8.43325 22.2333 7.59159C21.5417 8.00825 20.775 8.29992 19.9667 8.46659C19.3083 7.74992 18.3833 7.33325 17.3333 7.33325C15.375 7.33325 13.775 8.93325 13.775 10.9083C13.775 11.1916 13.8083 11.4666 13.8667 11.7249C10.9 11.5749 8.25832 10.1499 6.49999 7.99159C6.19166 8.51659 6.01666 9.13325 6.01666 9.78325C6.01666 11.0249 6.64166 12.1249 7.60833 12.7499C7.01666 12.7499 6.46666 12.5833 5.98333 12.3333V12.3583C5.98333 14.0916 7.21666 15.5416 8.84999 15.8666C8.3256 16.0101 7.77507 16.0301 7.24166 15.9249C7.468 16.6353 7.91127 17.2569 8.50917 17.7024C9.10707 18.1478 9.82953 18.3947 10.575 18.4083C9.31135 19.4086 7.74499 19.9493 6.13333 19.9416C5.84999 19.9416 5.56666 19.9249 5.28333 19.8916C6.86666 20.9083 8.74999 21.4999 10.7667 21.4999C17.3333 21.4999 20.9417 16.0499 20.9417 11.3249C20.9417 11.1666 20.9417 11.0166 20.9333 10.8583C21.6333 10.3583 22.2333 9.72492 22.7167 8.99992Z" fill="#202124"/>
</svg>
