<svg width="28" height="28" viewBox="0 0 28 28" fill="none" xmlns="http://www.w3.org/2000/svg">
<path d="M12.3334 16.5001L16.6584 14.0001L12.3334 11.5001V16.5001ZM21.9667 9.97508C22.075 10.3667 22.15 10.8917 22.2 11.5584C22.2584 12.2251 22.2834 12.8001 22.2834 13.3001L22.3334 14.0001C22.3334 15.8251 22.2 17.1667 21.9667 18.0251C21.7584 18.7751 21.275 19.2584 20.525 19.4667C20.1334 19.5751 19.4167 19.6501 18.3167 19.7001C17.2334 19.7584 16.2417 19.7834 15.325 19.7834L14 19.8334C10.5084 19.8334 8.33335 19.7001 7.47502 19.4667C6.72502 19.2584 6.24169 18.7751 6.03335 18.0251C5.92502 17.6334 5.85002 17.1084 5.80002 16.4417C5.74169 15.7751 5.71669 15.2001 5.71669 14.7001L5.66669 14.0001C5.66669 12.1751 5.80002 10.8334 6.03335 9.97508C6.24169 9.22508 6.72502 8.74175 7.47502 8.53341C7.86669 8.42508 8.58335 8.35008 9.68335 8.30008C10.7667 8.24175 11.7584 8.21675 12.675 8.21675L14 8.16675C17.4917 8.16675 19.6667 8.30008 20.525 8.53341C21.275 8.74175 21.7584 9.22508 21.9667 9.97508Z" fill="#202124"/>
</svg>
